<?xml version="1.0" standalone="no"?><!DOCTYPE svg PUBLIC "-//W3C//DTD SVG 1.1//EN" "http://www.w3.org/Graphics/SVG/1.1/DTD/svg11.dtd"><svg t="1550817051414" class="icon" style="" viewBox="0 0 1024 1024" version="1.1" xmlns="http://www.w3.org/2000/svg" p-id="2877" xmlns:xlink="http://www.w3.org/1999/xlink" width="128" height="128"><defs><style type="text/css"></style></defs><path d="M371.744 812.448c-91.808 27.552-128.896 12.96-174.816-43.872-3.072-3.808-15.776-19.968-19.2-24.192-27.488-33.92-49.408-52.32-82.048-60.448a42.656 42.656 0 0 0-21.024 82.688l0.288 0.064c9.824 2.464 19.712 10.752 36.384 31.36 2.976 3.616 15.712 19.808 19.2 24.096 66.304 82.144 138.016 110.304 265.696 72.032a42.656 42.656 0 1 0-24.768-81.632l0.288-0.096zM960 406.176a273.632 273.632 0 0 0-59.264-170.432l0.448 0.576a252.352 252.352 0 0 0 8.48-65.76 258.336 258.336 0 0 0-21.6-103.712l0.64 1.664a42.88 42.88 0 0 0-26.784-24.032l-0.288-0.064a58.752 58.752 0 0 0-8.608-1.824l-0.352-0.032c-40.064-5.792-98.848 10.016-177.632 60-42.56-10.528-91.424-16.576-141.696-16.576s-99.136 6.048-145.888 17.44l4.192-0.864C312.896 52.608 254.08 36.736 213.984 42.56a64.96 64.96 0 0 0-9.408 1.984l0.448-0.128a43.008 43.008 0 0 0-26.944 23.84l-0.096 0.288a254.624 254.624 0 0 0-20.96 102.048c0 23.392 3.104 46.048 8.896 67.584l-0.416-1.824a273.056 273.056 0 0 0-58.848 169.92v1.504-0.064c0 196.768 87.904 292.96 247.456 329.6a182.912 182.912 0 0 0-13.184 68.832c0 4.608 0.16 9.152 0.48 13.696l-0.032-0.608-0.096 162.144a42.656 42.656 0 0 0 85.312 0v-165.12c-2.144-31.616 8.096-59.776 28.128-80.416a42.688 42.688 0 0 0-25.216-71.936l-0.224-0.032c-161.824-20.128-237.344-83.584-237.344-256.352v-1.184c0-50.688 19.904-96.736 52.288-130.752l-0.064 0.064a42.496 42.496 0 0 0 8.992-44.672l0.096 0.288a170.464 170.464 0 0 1-10.976-60.736c0-14.688 1.824-28.928 5.248-42.528l-0.256 1.184c2.976 0.64 6.272 1.504 9.856 2.56 27.52 7.904 61.792 24.48 103.04 52.192a42.304 42.304 0 0 0 35.264 5.632l-0.288 0.064c41.44-11.68 89.024-18.4 138.144-18.4s96.736 6.72 141.856 19.264l-3.712-0.896a42.528 42.528 0 0 0 35.104-5.792l-0.16 0.096c41.248-27.68 75.52-44.288 103.04-52.224 3.584-1.024 6.816-1.888 9.824-2.56 3.2 12.448 5.024 26.72 5.024 41.44a172.48 172.48 0 0 1-11.36 61.856l0.384-1.184a42.528 42.528 0 0 0 9.12 44.416v-0.032a188.672 188.672 0 0 1 52.224 130.56c0 174.432-76.032 238.336-236.8 256.256a42.72 42.72 0 0 0-25.952 72.096 100.8 100.8 0 0 1 28.16 78.72l0.032-0.352-0.128 168.448a42.656 42.656 0 0 0 85.312 0v-165.12a176.64 176.64 0 0 0-12.8-80.832l0.416 1.184c158.72-35.2 247.04-132.256 247.04-330.368z" p-id="2878"></path></svg>